# xmcd
#
# Track frame offsets: 
#        150
#        2772
#        16252
#        28025
#        40146
#        51149
#        67287
#        83449
#        83909
#        95201
#        105514
#        114842
#        115312
#        123118
#        132933
#        156508
#        180078
#
# Disc length: 2713 seconds
#
# Revision: 0
# Processed by: cddbd v1.5.2PL0 Copyright (c) Steve Scherf et al.
# Submitted via: ExactAudioCopy v0.99pb4
#
DISCID=d00a9711
DTITLE=David Barrett - C Harmonica Blues Play-Along Trax CD2
DYEAR=2002
DGENRE=Blues-Playalong
TTITLE0=Intro
TTITLE1=3rd Pos - Key of D - 80 bpm
TTITLE2=3rd Pos - Key of D - 100 bpm
TTITLE3=3rd Pos - Key of D - 126 bpm
TTITLE4=3rd Pos - Key of Dm - 100 bpm
TTITLE5=Track06 - 3rd Pos - Key of BandD - 116 bpm
TTITLE6=Track07 - 3rd Pos - Key of BandD - 116 bpm
TTITLE7=Track08 - Key of C - intro
TTITLE8=1st Pos - Key of C - 100 bpm
TTITLE9=1st Pos - Key of C - 144 bpm
TTITLE10=1st Pos - Key of C - 100 bpm - Free Form Groove
TTITLE11=4th Pos - Key of A - intro
TTITLE12=4th Pos - Key of A - 160 bpm - Free Form Boogie
TTITLE13=intro
TTITLE14=Key of G - It Takes Three #1
TTITLE15=Key of G - It Takes Three #2
TTITLE16=Key of G - It Takes Three #3
EXTD=
EXTT0=
EXTT1=
EXTT2=
EXTT3=
EXTT4=
EXTT5=
EXTT6=
EXTT7=
EXTT8=
EXTT9=
EXTT10=
EXTT11=
EXTT12=
EXTT13=
EXTT14=
EXTT15=
EXTT16=
PLAYORDER=
